<?xml version="1.0" encoding="utf-8"?>
<!-- Generator: Adobe Illustrator 28.0.0, SVG Export Plug-In . SVG Version: 6.00 Build 0)  -->
<svg version="1.1" id="Camada_1" xmlns="http://www.w3.org/2000/svg" xmlns:xlink="http://www.w3.org/1999/xlink" x="0px" y="0px"
	 viewBox="0 0 1920 1080" style="enable-background:new 0 0 1920 1080;" xml:space="preserve">
<g>
	<g>
		<path d="M471.51,492.62c10.87-7.85,17.54-20.85,17.56-34.5c0.04-25.2-21.61-44.24-50.37-44.29l-87.82-0.15l-0.31,169.28
			l95.27,0.16c14.59,0,28-4.67,37.76-13.15c9.98-8.67,15.5-20.76,15.52-34.03C499.16,517.18,488.16,500.09,471.51,492.62z
			 M431.04,480.74v1.34l0,0l-0.04-1.34l-43.94-0.08l0.06-35.5l43.94,0.08c5.44,0.01,10.43,1.83,14.05,5.13
			c3.59,3.27,5.56,7.77,5.55,12.65C450.64,472.96,442.02,480.74,431.04,480.74z M387.01,510.67l51.26,0.09
			c12.98,0.02,22.75,8.79,22.73,20.39c-0.01,5.57-2.32,10.73-6.49,14.55c-4.23,3.87-10.01,6-16.31,6l-51.26-0.09L387.01,510.67z"/>
		<polygon points="551.97,514.52 629.62,514.65 629.68,482.05 552.04,481.92 552.09,446.65 638.37,446.8 638.43,414.2 514.8,413.99 
			514.49,583.26 639.43,583.48 639.5,550.88 551.91,550.73 		"/>
		<polygon points="653.95,446.83 705.45,446.92 705.21,583.6 742.57,583.67 742.81,446.99 794.06,447.08 794.12,414.48 
			654.01,414.24 		"/>
		<polygon points="808.52,447.11 860.03,447.19 859.78,583.87 897.14,583.93 897.39,447.26 948.63,447.34 948.69,414.75 
			808.59,414.51 		"/>
		<polygon points="1002.1,515.33 1079.75,515.46 1079.81,482.86 1002.16,482.73 1002.22,447.46 1088.5,447.61 1088.56,415.01 
			964.93,414.79 964.62,584.07 1089.56,584.29 1089.63,551.69 1002.04,551.54 		"/>
		<path d="M1209.3,520.81c24.45-7.29,40.75-27.42,40.79-50.65c0.03-15.15-6.35-29.11-17.97-39.29
			c-11.49-10.07-27.16-15.63-44.14-15.66l-82.08-0.14l-0.31,169.28l37.36,0.07l0.1-60.77l23.28,0.04l45.38,60.85l46.82,0.08
			L1209.3,520.81z M1143.2,447.73l43.94,0.07c14.17,0.02,24.84,9.71,24.82,22.52c-0.03,12.93-10.71,22.68-24.89,22.68l-43.94-0.07
			L1143.2,447.73z"/>
	</g>
	<g>
		<path d="M1408.42,502.24l-32.9-0.05l-0.05,27.87l32.9,0.06c8.86,0.02,15.67-6.14,15.68-13.98
			C1424.06,508.29,1417.27,502.25,1408.42,502.24z"/>
		<path d="M1417.8,475.79c0.01-7-5.83-12.33-13.74-12.35l-28.47-0.05l-0.04,24.65l28.47,0.05
			C1411.61,488.1,1417.78,482.79,1417.8,475.79z"/>
		<path d="M1522.44,417.32l-156.31-0.27c-45.13-0.08-81.77,36.67-81.85,82.09c-0.08,45.42,36.44,82.3,81.56,82.38l156.31,0.27
			c45.13,0.08,81.77-36.67,81.85-82.09C1604.08,454.29,1567.56,417.4,1522.44,417.32z M1412.93,545.1l-55.67-0.09l0.18-96.63
			l51.24,0.09c16.13,0.02,28.61,10.41,28.58,24.41c-0.02,9.24-5.57,17.21-13.01,20.85c11.22,3.1,19.11,13.33,19.09,25.24
			C1443.31,534.23,1430.16,545.13,1412.93,545.1z M1530.06,545.31l-71.8-0.12l0.18-96.63l71.01,0.12l-0.03,15.69l-52.19-0.09
			l-0.04,24.51l46.97,0.08l-0.03,15.69l-46.97-0.08l-0.05,25.07l52.98,0.09L1530.06,545.31z"/>
	</g>
</g>
</svg>
